<svg width="492" height="709" viewBox="0 0 492 709" fill="none" xmlns="http://www.w3.org/2000/svg">
<g clip-path="url(#clip0_829_54)">
<g filter="url(#filter0_d_829_54)">
<circle cx="266.091" cy="146.091" r="82.0907" fill="white"/>
<circle cx="266.091" cy="146.091" r="79.5907" stroke="black" stroke-width="5"/>
</g>
<path d="M234.517 244.255V168.774C234.997 158.862 237.856 142.013 245.455 153.907C253.054 165.801 255.487 189.145 249.443 189.145C245.413 190.932 241.403 183.658 242.554 168.774C243.993 150.169 250.348 135.679 257.256 140.826C264.164 145.972 273.826 189.145 268.069 189.145C262.313 189.145 259.902 175.186 259.902 165.2C259.902 154.335 264.056 131.105 272.979 140.826C281.902 150.547 292.373 175.135 288.343 187.144C285.119 196.75 275.966 181.354 275.966 164.842C275.966 153.907 281.147 140.826 288.343 143.685C296.644 146.983 298.129 169.417 297.554 181.425C297.093 191.032 297.362 230.15 297.554 244.255" stroke="black" stroke-width="5" stroke-linecap="round"/>
<mask id="path-4-inside-1_829_54" fill="white">
<path d="M216.147 213.256C216.147 213.256 245.822 217.238 264.943 217.274C284.51 217.311 314.886 213.256 314.886 213.256C314.886 213.256 323.497 237.94 314.886 241.672C325.219 248.273 321.775 261.477 314.886 270.088C318.779 273.007 326.367 298.504 317.095 305.679C324.645 311.42 314.886 326.92 314.886 326.92H216.147C216.147 326.92 209.259 306.253 216.147 298.504C209.259 292.476 206.962 276.976 216.147 270.088C207.537 263.199 208.685 250.57 216.147 241.672C207.537 232.774 216.147 213.256 216.147 213.256Z"/>
</mask>
<path d="M216.147 213.256C216.147 213.256 245.822 217.238 264.943 217.274C284.51 217.311 314.886 213.256 314.886 213.256C314.886 213.256 323.497 237.94 314.886 241.672C325.219 248.273 321.775 261.477 314.886 270.088C318.779 273.007 326.367 298.504 317.095 305.679C324.645 311.42 314.886 326.92 314.886 326.92H216.147C216.147 326.92 209.259 306.253 216.147 298.504C209.259 292.476 206.962 276.976 216.147 270.088C207.537 263.199 208.685 250.57 216.147 241.672C207.537 232.774 216.147 213.256 216.147 213.256Z" fill="#FFCF55"/>
<path d="M216.147 213.256L216.812 208.3L213.089 207.8L211.573 211.237L216.147 213.256ZM314.886 213.256L319.607 211.609L318.264 207.76L314.224 208.3L314.886 213.256ZM314.886 326.92V331.92H317.646L319.117 329.584L314.886 326.92ZM216.147 326.92L211.404 328.501L212.544 331.92H216.147V326.92ZM264.943 217.274L264.952 212.274L264.943 217.274ZM216.147 270.088L219.147 274.088L224.311 270.215L219.271 266.183L216.147 270.088ZM314.886 270.088L310.982 266.964L307.759 270.992L311.886 274.088L314.886 270.088ZM216.147 241.672L219.978 244.885L222.874 241.432L219.74 238.195L216.147 241.672ZM314.886 241.672L312.898 237.084L304.27 240.823L312.194 245.885L314.886 241.672ZM216.147 298.504L219.884 301.825L223.232 298.059L219.44 294.741L216.147 298.504ZM317.095 305.679L314.035 301.725L308.88 305.714L314.068 309.66L317.095 305.679ZM314.886 321.92H216.147V331.92H314.886V321.92ZM216.147 213.256C215.482 218.211 215.483 218.211 215.483 218.211C215.483 218.211 215.484 218.211 215.485 218.211C215.486 218.212 215.487 218.212 215.489 218.212C215.494 218.213 215.5 218.213 215.507 218.215C215.523 218.217 215.545 218.22 215.575 218.223C215.634 218.231 215.721 218.243 215.834 218.258C216.061 218.288 216.394 218.331 216.823 218.386C217.682 218.496 218.928 218.654 220.48 218.842C223.585 219.219 227.925 219.722 232.868 220.226C242.707 221.229 255.111 222.256 264.933 222.274L264.952 212.274C255.654 212.257 243.66 211.274 233.882 210.277C229.016 209.781 224.742 209.286 221.685 208.915C220.157 208.729 218.935 208.575 218.097 208.468C217.677 208.414 217.354 208.372 217.137 208.343C217.028 208.329 216.946 208.318 216.892 208.311C216.864 208.307 216.844 208.304 216.831 208.302C216.824 208.302 216.819 208.301 216.816 208.301C216.815 208.3 216.814 208.3 216.813 208.3C216.813 208.3 216.813 208.3 216.812 208.3C216.812 208.3 216.812 208.3 216.147 213.256ZM264.933 222.274C274.985 222.293 287.681 221.266 297.752 220.254C302.811 219.745 307.253 219.235 310.431 218.853C312.021 218.661 313.296 218.502 314.175 218.39C314.615 218.334 314.956 218.289 315.188 218.259C315.304 218.244 315.393 218.232 315.453 218.224C315.483 218.22 315.506 218.217 315.522 218.215C315.53 218.214 315.536 218.213 315.54 218.213C315.542 218.212 315.544 218.212 315.545 218.212C315.546 218.212 315.546 218.212 315.547 218.212C315.547 218.212 315.548 218.212 314.886 213.256C314.224 208.3 314.224 208.3 314.224 208.3C314.224 208.3 314.224 208.3 314.224 208.3C314.223 208.3 314.222 208.3 314.22 208.3C314.217 208.301 314.212 208.301 314.206 208.302C314.192 208.304 314.171 208.307 314.143 208.31C314.088 208.318 314.003 208.329 313.892 208.343C313.67 208.372 313.339 208.415 312.91 208.47C312.052 208.579 310.8 208.736 309.236 208.925C306.107 209.301 301.732 209.803 296.752 210.304C286.743 211.31 274.468 212.292 264.952 212.274L264.933 222.274ZM219.271 266.183C213.737 261.756 213.494 252.616 219.978 244.885L212.316 238.459C203.875 248.523 201.336 264.642 213.024 273.992L219.271 266.183ZM219.74 238.195C217.272 235.644 216.794 230.83 217.84 225.011C218.32 222.335 219.05 219.871 219.668 218.061C219.975 217.163 220.249 216.442 220.442 215.956C220.538 215.713 220.614 215.53 220.663 215.413C220.687 215.355 220.705 215.314 220.715 215.29C220.72 215.279 220.723 215.271 220.724 215.268C220.725 215.267 220.725 215.267 220.725 215.268C220.725 215.268 220.724 215.269 220.724 215.27C220.724 215.27 220.723 215.271 220.723 215.272C220.723 215.273 220.722 215.274 216.147 213.256C211.573 211.237 211.572 211.239 211.572 211.24C211.571 211.241 211.571 211.242 211.57 211.243C211.569 211.245 211.568 211.248 211.567 211.251C211.565 211.256 211.562 211.263 211.558 211.271C211.551 211.287 211.542 211.308 211.531 211.333C211.509 211.384 211.48 211.453 211.443 211.54C211.37 211.714 211.269 211.959 211.147 212.268C210.902 212.884 210.571 213.757 210.205 214.828C209.478 216.955 208.593 219.927 207.997 223.243C206.89 229.407 206.412 238.802 212.554 245.149L219.74 238.195ZM314.886 213.256C310.165 214.902 310.165 214.902 310.164 214.901C310.164 214.901 310.164 214.9 310.164 214.9C310.164 214.9 310.164 214.9 310.164 214.9C310.164 214.901 310.165 214.903 310.166 214.907C310.169 214.914 310.173 214.927 310.18 214.946C310.193 214.984 310.213 215.043 310.24 215.124C310.294 215.286 310.376 215.531 310.478 215.849C310.682 216.486 310.968 217.411 311.286 218.535C311.928 220.799 312.683 223.801 313.179 226.865C313.688 230.002 313.867 232.855 313.568 234.954C313.422 235.984 313.192 236.592 313.015 236.902C312.935 237.042 312.883 237.092 312.878 237.096C312.875 237.099 312.879 237.096 312.887 237.091C312.895 237.085 312.9 237.083 312.898 237.084L316.874 246.259C321.443 244.28 322.98 239.797 323.469 236.361C323.978 232.782 323.618 228.764 323.05 225.264C322.471 221.69 321.611 218.288 320.907 215.807C320.553 214.559 320.234 213.525 320.001 212.798C319.884 212.434 319.788 212.145 319.721 211.943C319.687 211.842 319.66 211.763 319.641 211.707C319.631 211.679 319.623 211.657 319.618 211.64C319.615 211.632 319.613 211.625 319.611 211.62C319.61 211.617 319.609 211.615 319.608 211.613C319.608 211.612 319.608 211.611 319.608 211.611C319.607 211.61 319.607 211.609 314.886 213.256ZM312.194 245.885C315.535 248.02 316.666 251.025 316.361 254.714C316.033 258.676 313.982 263.214 310.982 266.964L318.79 273.211C322.679 268.351 325.794 261.981 326.327 255.539C326.883 248.823 324.57 241.925 317.578 237.458L312.194 245.885ZM216.147 326.92C220.891 325.338 220.891 325.339 220.891 325.34C220.891 325.34 220.892 325.341 220.892 325.341C220.892 325.342 220.892 325.342 220.892 325.342C220.892 325.342 220.892 325.341 220.891 325.339C220.889 325.334 220.886 325.325 220.882 325.31C220.872 325.282 220.857 325.235 220.836 325.169C220.795 325.039 220.732 324.838 220.652 324.573C220.493 324.044 220.268 323.267 220.016 322.305C219.51 320.37 218.911 317.743 218.516 314.923C218.116 312.072 217.95 309.209 218.213 306.743C218.484 304.208 219.147 302.655 219.884 301.825L212.41 295.182C209.704 298.227 208.645 302.164 208.269 305.683C207.887 309.272 208.152 313.028 208.613 316.313C209.078 319.628 209.771 322.652 210.341 324.834C210.628 325.931 210.887 326.828 211.078 327.46C211.173 327.776 211.251 328.026 211.307 328.202C211.335 328.29 211.358 328.36 211.374 328.41C211.382 328.435 211.389 328.455 211.394 328.47C211.396 328.478 211.399 328.484 211.4 328.489C211.401 328.492 211.402 328.494 211.402 328.496C211.403 328.497 211.403 328.498 211.403 328.499C211.404 328.5 211.404 328.501 216.147 326.92ZM219.44 294.741C217.241 292.816 215.347 288.835 215.113 284.357C214.884 279.969 216.283 276.236 219.147 274.088L213.147 266.088C206.827 270.828 204.782 278.289 205.127 284.88C205.467 291.381 208.165 298.163 212.855 302.267L219.44 294.741ZM311.886 274.088C311.512 273.807 311.641 273.767 312.13 274.628C312.534 275.34 313.011 276.361 313.507 277.657C314.497 280.245 315.432 283.597 315.99 287.079C316.554 290.592 316.692 293.984 316.267 296.739C315.832 299.559 314.923 301.038 314.035 301.725L320.155 309.634C323.903 306.733 325.522 302.333 326.15 298.264C326.788 294.129 326.525 289.619 325.864 285.496C325.198 281.342 324.086 277.324 322.847 274.086C322.229 272.469 321.548 270.963 320.828 269.694C320.193 268.574 319.233 267.098 317.886 266.088L311.886 274.088ZM314.068 309.66C314.502 309.989 314.865 310.504 314.945 311.744C315.034 313.106 314.723 314.892 314.067 316.904C313.431 318.859 312.572 320.716 311.85 322.113C311.494 322.803 311.182 323.36 310.964 323.735C310.856 323.923 310.771 324.064 310.717 324.153C310.69 324.198 310.671 324.229 310.66 324.246C310.655 324.255 310.652 324.26 310.651 324.262C310.65 324.262 310.65 324.262 310.651 324.261C310.651 324.261 310.652 324.26 310.652 324.259C310.653 324.259 310.653 324.258 310.653 324.258C310.654 324.257 310.655 324.256 314.886 326.92C319.117 329.584 319.118 329.583 319.118 329.581C319.119 329.581 319.12 329.58 319.12 329.579C319.121 329.577 319.123 329.575 319.124 329.572C319.127 329.568 319.131 329.562 319.135 329.555C319.143 329.542 319.154 329.525 319.167 329.504C319.193 329.462 319.227 329.406 319.27 329.335C319.355 329.194 319.473 328.997 319.617 328.749C319.903 328.255 320.294 327.556 320.735 326.703C321.607 325.015 322.717 322.638 323.576 320.001C324.417 317.42 325.13 314.255 324.924 311.096C324.711 307.815 323.462 304.24 320.121 301.699L314.068 309.66Z" fill="black" mask="url(#path-4-inside-1_829_54)"/>
<path d="M178.269 132.096L263.006 122.305L356.391 115.969L374.837 149.376L386.366 180.478L395.589 223.099L400.777 284.152V313.526L415.188 353.844L410 423.536L400.777 456.943L410 495.532L415.188 532.97L410 561.769L415.188 617.062V669.475L410 728L-152 748.5L-148 634.341V591.719L-142.236 553.129L-89.7789 536.426L-7.92346 521.451L116.589 492.077L111.401 467.31L116.589 439.088L135.035 383.219L129.847 364.788L125.812 325.046L140.223 277.816L143.682 238.651L153.482 187.965L178.269 132.096Z" fill="white"/>
<path d="M367.297 246.312L367.26 246.523V246.736C367.26 250.52 367.299 254.337 367.338 258.167C367.444 268.585 367.55 279.091 366.88 289.254C365.965 303.126 363.613 316.005 358.006 326.627C352.447 337.158 343.627 345.595 329.459 350.549C315.199 355.536 295.402 357.034 267.911 353.33L267.626 353.292L267.339 353.319C243.605 355.593 226.482 353.4 214.112 348.184C201.821 343.001 194.057 334.765 189.099 324.55C184.103 314.255 181.927 301.877 181.03 288.444C180.341 278.136 180.411 267.378 180.481 256.59C180.503 253.304 180.524 250.016 180.524 246.736C180.524 192.192 222.448 148.202 273.892 148.202C299.875 148.202 326.075 156.662 344.313 173.104C362.45 189.456 372.894 213.85 367.297 246.312Z" fill="#FFF9E4" stroke="black" stroke-width="5"/>
<circle cx="224.523" cy="223.2" r="4.01842" fill="black"/>
<circle cx="325.557" cy="223.2" r="4.01842" fill="black"/>
<path d="M278.485 286.921C278.026 299.321 295.707 312.754 305.466 309.883" stroke="black" stroke-width="5" stroke-linecap="round"/>
<path d="M277.898 286.921C278.543 299.321 257.244 317.346 240.022 309.883" stroke="black" stroke-width="5" stroke-linecap="round"/>
<path d="M285.947 278.884C285.947 283.323 282.349 286.921 277.91 286.921C273.472 286.921 269.874 283.323 269.874 278.884C269.874 274.445 273.472 274.292 277.91 274.292C282.349 274.292 285.947 274.445 285.947 278.884Z" fill="black"/>
<path d="M256.932 234.075C266.697 220.341 277.145 221.989 287.014 231.878M287.014 231.878C287.014 231.878 287.594 212.651 298.043 204.41C311.025 194.172 339.837 187.93 364.218 206.608C377.125 216.496 373.099 246.681 354.93 258.796C335.194 271.955 314.296 268.684 300.945 256.598C287.594 244.513 287.014 231.878 287.014 231.878ZM253.926 212.101C243.141 187.352 195.297 192.325 181.946 204.41C167.145 217.809 171.687 242.742 186.01 256.598C202.179 272.241 229.833 269.68 245.799 253.852C257.896 241.86 260.605 227.428 253.926 212.101Z" stroke="black" stroke-width="5" stroke-linecap="round"/>
<path d="M177.848 132.08L177.614 129.591L176.712 129.676L176.074 130.318L177.848 132.08ZM353.988 115.969L355.695 114.143L354.879 113.38L353.766 113.479L353.988 115.969ZM407.745 561.327L405.283 560.895L405.214 561.287L405.271 561.682L407.745 561.327ZM407.745 727.031L407.675 729.53L408.99 729.567L409.766 728.503L407.745 727.031ZM-142.408 711.5L-144.896 711.751L-144.675 713.937L-142.479 713.999L-142.408 711.5ZM117.82 493.43L120.312 493.621L120.359 493.017L120.123 492.458L117.82 493.43ZM263.63 124.025L263.408 121.535L263.397 121.536L263.63 124.025ZM139.229 278.231L141.517 279.238L141.729 278.757V278.231H139.229ZM134.384 381.227L136.79 381.908L136.994 381.186L136.767 380.47L134.384 381.227ZM400.451 311.604L397.981 311.213L397.876 311.878L398.119 312.506L400.451 311.604ZM400.451 456.604L398.075 455.825L397.827 456.58L398.061 457.339L400.451 456.604ZM405.271 561.682C408.686 585.452 411.825 622.461 412.537 655.668C412.894 672.273 412.642 687.867 411.528 700.351C410.971 706.595 410.202 712.007 409.203 716.353C408.188 720.765 406.991 723.821 405.725 725.558L409.766 728.503C411.645 725.925 413.021 722.058 414.076 717.474C415.145 712.823 415.94 707.164 416.508 700.795C417.646 688.053 417.895 672.254 417.536 655.561C416.82 622.171 413.667 584.959 410.22 560.971L405.271 561.682ZM407.816 724.532L-142.338 709.001L-142.479 713.999L407.675 729.53L407.816 724.532ZM-142.408 711.5C-139.921 711.249 -139.921 711.249 -139.921 711.248C-139.921 711.247 -139.921 711.246 -139.921 711.244C-139.922 711.241 -139.922 711.235 -139.923 711.228C-139.924 711.213 -139.927 711.191 -139.93 711.161C-139.936 711.102 -139.944 711.013 -139.956 710.895C-139.979 710.66 -140.014 710.309 -140.058 709.851C-140.147 708.934 -140.275 707.584 -140.435 705.856C-140.754 702.4 -141.195 697.433 -141.686 691.393C-142.667 679.311 -143.844 662.944 -144.629 645.793C-145.414 628.633 -145.804 610.732 -145.218 595.568C-144.925 587.985 -144.389 581.128 -143.547 575.413C-142.697 569.645 -141.562 565.242 -140.169 562.439L-144.647 560.214C-146.4 563.74 -147.624 568.778 -148.494 574.684C-149.372 580.642 -149.917 587.693 -150.214 595.375C-150.808 610.743 -150.411 628.803 -149.624 646.022C-148.836 663.249 -147.654 679.679 -146.669 691.798C-146.177 697.859 -145.734 702.844 -145.414 706.315C-145.254 708.051 -145.124 709.408 -145.035 710.332C-144.99 710.794 -144.955 711.148 -144.932 711.387C-144.92 711.506 -144.911 711.597 -144.905 711.658C-144.902 711.688 -144.9 711.711 -144.898 711.727C-144.897 711.734 -144.897 711.74 -144.896 711.744C-144.896 711.746 -144.896 711.748 -144.896 711.749C-144.896 711.75 -144.896 711.751 -142.408 711.5ZM115.152 601.658C116.009 562.134 117.807 526.2 120.312 493.621L115.327 493.238C112.815 525.915 111.012 561.94 110.153 601.55L115.152 601.658ZM-140.169 562.439C-137.42 556.907 -131.227 552.25 -122.207 548.277C-113.255 544.334 -101.943 541.247 -89.5577 538.598C-77.1854 535.951 -63.8814 533.767 -50.9556 531.587C-38.0659 529.414 -25.5382 527.242 -14.8554 524.628L-16.044 519.771C-26.521 522.335 -38.8703 524.479 -51.7869 526.657C-64.6674 528.829 -78.0991 531.033 -90.6038 533.708C-103.095 536.381 -114.801 539.552 -124.222 543.701C-133.573 547.819 -141.105 553.087 -144.647 560.214L-140.169 562.439ZM-14.8554 524.628C6.25958 519.46 39.5396 512.275 67.5697 506.377C81.5786 503.429 94.2658 500.805 103.451 498.917C108.043 497.974 111.76 497.214 114.328 496.691C115.613 496.429 116.61 496.226 117.286 496.089C117.624 496.02 117.881 495.968 118.054 495.933C118.141 495.915 118.206 495.902 118.25 495.893C118.272 495.889 118.289 495.886 118.299 495.883C118.305 495.882 118.309 495.881 118.312 495.881C118.313 495.881 118.314 495.88 118.315 495.88C118.316 495.88 118.316 495.88 117.82 493.43C117.324 490.979 117.323 490.979 117.323 490.98C117.322 490.98 117.321 490.98 117.32 490.98C117.317 490.981 117.313 490.982 117.307 490.983C117.296 490.985 117.279 490.988 117.257 490.993C117.213 491.002 117.148 491.015 117.061 491.033C116.887 491.068 116.629 491.12 116.291 491.189C115.614 491.327 114.615 491.529 113.33 491.791C110.759 492.315 107.04 493.075 102.444 494.02C93.2539 495.908 80.5586 498.534 66.5401 501.484C38.5153 507.382 5.16055 514.582 -16.044 519.771L-14.8554 524.628ZM178.081 134.57L263.864 126.514L263.397 121.536L177.614 129.591L178.081 134.57ZM263.852 126.515L354.21 118.459L353.766 113.479L263.408 121.535L263.852 126.515ZM141.729 278.231C141.729 243.168 148.96 209.268 157.377 182.941C161.584 169.783 166.077 158.549 170.09 150.04C172.096 145.784 173.973 142.23 175.622 139.468C177.296 136.666 178.66 134.809 179.621 133.843L176.074 130.318C174.673 131.728 173.059 134.009 171.33 136.904C169.576 139.841 167.624 143.545 165.567 147.907C161.453 156.634 156.881 168.074 152.615 181.418C144.085 208.097 136.729 242.521 136.729 278.231H141.729ZM120.123 492.458C113.264 476.194 114.315 459.262 118.705 440.932C120.9 431.764 123.911 422.322 127.141 412.485C130.361 402.676 133.799 392.472 136.79 381.908L131.979 380.546C129.023 390.984 125.628 401.063 122.39 410.926C119.162 420.76 116.091 430.378 113.842 439.767C109.344 458.55 108.058 476.717 115.516 494.401L120.123 492.458ZM136.767 380.47C125.056 343.641 127.082 312.046 141.517 279.238L136.941 277.224C122.008 311.162 119.927 344.012 132.002 381.985L136.767 380.47ZM352.281 117.796C359.164 124.226 366.016 136.542 372.291 152.511C378.528 168.385 384.072 187.539 388.487 207.321C397.343 246.992 401.552 288.683 397.981 311.213L402.92 311.996C406.644 288.493 402.252 246.035 393.367 206.232C388.913 186.276 383.302 166.861 376.945 150.682C370.625 134.6 363.443 121.381 355.695 114.143L352.281 117.796ZM398.119 312.506C415.448 357.29 412.103 413.065 398.075 455.825L402.826 457.384C417.113 413.834 420.631 356.831 402.782 310.702L398.119 312.506ZM398.061 457.339C412.082 502.928 410.374 531.865 405.283 560.895L410.208 561.758C415.41 532.097 417.134 502.344 402.84 455.869L398.061 457.339Z" fill="black"/>
<path d="M110.645 485.269C108.004 477.232 118.108 445.084 118.108 445.084L229.475 519.712L193.31 562.767C193.31 562.767 113.285 493.305 110.645 485.269Z" fill="#3455FF"/>
<path d="M109.497 470.343L114.089 456.566L218.271 533.787L205.236 548.678L109.497 470.343Z" fill="white"/>
<path d="M405.712 481.824C405.712 481.824 418.341 519.138 414.323 524.305C410.305 529.471 370.12 562.767 370.12 562.767L339.121 522.008L405.712 481.824Z" fill="#3455FF"/>
<path d="M410.304 496.176L414.323 508.231L360.439 549.388L348.306 535.267L410.304 496.176Z" fill="white"/>
<circle cx="280.757" cy="583.757" r="100.257" fill="#FFC24B" stroke="black" stroke-width="5"/>
<circle cx="280.758" cy="583.757" r="80.5907" fill="#FFC24B" stroke="black" stroke-width="3"/>
<path d="M288.875 546.572V614.936H280.597V555.251H280.196L263.506 566.333V557.921L280.597 546.572H288.875Z" fill="black"/>
<path d="M360.585 107.163L360.002 108.11L360.314 109.178C364.008 121.79 363.843 132.045 359.375 139.853C354.922 147.635 345.823 153.629 330.16 156.879L329.43 157.03L328.902 157.557C318.81 167.632 303.716 171.33 279.009 167.742L277.963 167.59L277.125 168.234C271.199 172.793 266.573 174.86 261.66 175.261C256.651 175.67 251.015 174.38 242.97 171.499L241.802 171.081L240.763 171.757C233.746 176.323 229.129 178.29 224.235 178.29C219.233 178.29 213.535 176.244 204.351 171.62L202.635 170.755L201.358 172.191C196.757 177.365 192.783 179.017 188.995 178.504C184.97 177.96 180.317 174.894 174.668 168.553L173.922 167.716L172.801 167.716C169.845 167.716 167.464 167.108 165.567 166.009C163.683 164.917 162.131 163.256 160.949 160.906C158.534 156.106 157.707 148.5 159.036 137.697L159.141 136.84L158.696 136.101C153.757 127.905 151.564 120.335 152.914 113.662C154.241 107.097 159.14 100.731 169.924 95.2002L170.566 94.8706L170.934 94.2489C174.988 87.3989 178.598 83.5513 181.765 81.4187C184.864 79.3324 187.676 78.7952 190.391 78.84C191.787 78.863 193.178 79.0409 194.627 79.2731C195.071 79.3443 195.537 79.4237 196.014 79.5048C197.02 79.6761 198.072 79.8554 199.069 79.9831C202.112 80.3729 205.479 80.4198 208.851 78.5658L209.406 78.2607L209.748 77.7282C218.209 64.5819 227.613 57.0534 239.028 53.8741C250.543 50.6671 264.473 51.7783 282.176 56.7122L282.808 56.8883L283.445 56.7314C298.072 53.129 310.284 51.8632 319.631 53.9241C328.746 55.9337 335.208 61.1079 338.642 70.9132L339.068 72.1298L340.306 72.4884C350.6 75.4698 357.461 81.3705 360.834 87.8432C364.204 94.3088 364.144 101.39 360.585 107.163Z" fill="white" stroke="black" stroke-width="5"/>
<path d="M162.909 70.4437L183.302 77.4978L203.694 88.9099L162.909 123.146L156.112 94.616L156.112 80.7768L162.909 70.4437Z" fill="white"/>
<path d="M159.842 121.597C154.378 103.188 148.137 67.3053 166.892 71.0539C185.647 74.8025 197.676 82.4019 201.345 85.733" stroke="black" stroke-width="5" stroke-linecap="round"/>
<path d="M179.107 88.0438L194.644 99.456L173.281 116.574L169.396 99.456L179.107 88.0438Z" fill="#FFF9E4"/>
<path d="M172.325 116.016C172.325 106.792 163.57 75.0013 191.731 96.1954" stroke="black" stroke-width="5" stroke-linecap="round"/>
<path d="M334.163 49.7775L319.237 59.5365L301.441 75.0362L351.148 101.455L351.148 71.0177L345.07 57.2403L334.163 49.7775Z" fill="white"/>
<path d="M353.496 98.9341C352.375 78.8216 346.06 41.0233 329.764 50.7291C313.468 60.435 304.778 71.845 302.469 76.3368" stroke="black" stroke-width="5" stroke-linecap="round"/>
<path d="M324.081 71.5708L313.396 87.9022L339.207 98.1939L337.044 79.8731L324.081 71.5708Z" fill="#FFF9E4"/>
<path d="M339.914 97.3331C336.788 88.1268 334.214 53.6123 315.021 83.7214" stroke="black" stroke-width="5" stroke-linecap="round"/>
</g>
<defs>
<filter id="filter0_d_829_54" x="104" y="-16" width="324.181" height="324.181" filterUnits="userSpaceOnUse" color-interpolation-filters="sRGB">
<feFlood flood-opacity="0" result="BackgroundImageFix"/>
<feColorMatrix in="SourceAlpha" type="matrix" values="0 0 0 0 0 0 0 0 0 0 0 0 0 0 0 0 0 0 127 0" result="hardAlpha"/>
<feMorphology radius="30" operator="dilate" in="SourceAlpha" result="effect1_dropShadow_829_54"/>
<feOffset/>
<feGaussianBlur stdDeviation="25"/>
<feComposite in2="hardAlpha" operator="out"/>
<feColorMatrix type="matrix" values="0 0 0 0 1 0 0 0 0 0.96 0 0 0 0 0 0 0 0 0.51 0"/>
<feBlend mode="normal" in2="BackgroundImageFix" result="effect1_dropShadow_829_54"/>
<feBlend mode="normal" in="SourceGraphic" in2="effect1_dropShadow_829_54" result="shape"/>
</filter>
<clipPath id="clip0_829_54">
<rect width="492" height="709" fill="white" transform="matrix(-1 0 0 1 492 0)"/>
</clipPath>
</defs>
</svg>
